<?xml version="1.0" encoding="UTF-8"?>
<svg width="64px" height="49px" viewBox="0 0 64 49" version="1.1" xmlns="http://www.w3.org/2000/svg" xmlns:xlink="http://www.w3.org/1999/xlink">
    <title>Symboli white</title>
    <g id="Eevan-logotyöstö-helmi-2022" stroke="none" stroke-width="1" fill="none" fill-rule="evenodd">
        <g id="Kirjautusmipainikkeiden-logot" transform="translate(-1379.000000, -368.000000)" fill="#FFFFFF">
            <g id="Symboli-white" transform="translate(1379.885286, 368.136683)">
                <g id="Ribbon-thicker" transform="translate(0.271613, -0.070294)">
                    <path d="M62.0482834,5.60199839 C55.1060032,5.44793274 49.8677302,17.867296 48.082213,17.867296 C47.7991405,17.867296 47.6262061,16.5038451 47.4645895,15.4584108 C46.7954453,11.1299779 40.8149259,10.2184953 41.5323046,14.4621689 C42.2739589,18.8494459 43.4785098,23.2259211 48.082213,23.2259211 C54.1619478,23.2259211 57.7343155,11.4369458 62.0482834,11.4369458 C62.0482834,8.86021255 62.0482834,6.94627786 62.0482834,5.60199839 Z" id="5"></path>
                    <path d="M47.7621182,16.7391039 C46.8218196,14.1279291 47.2625795,0 39.0093319,0 C34.3808053,4.73986605 37.0172829,9.82464038 37.6426853,8.07659267 C38.1156157,6.75471617 38.5947541,5.13301565 39.0093319,5.13301565 C40.5026694,5.13301565 40.8060516,10.2155756 41.5263519,14.4602018 C42.2710267,18.8484635 43.4804833,23.2259211 48.1029358,23.2259211 C50.5732277,23.2259211 52.6312512,21.2949733 54.4931815,18.995862 C49.8879176,22.4072893 48.8448814,19.7458975 47.7621182,16.7391039 Z" id="4"></path>
                    <path d="M45.1698643,4.6864862 C43.9985806,2.02612071 42.1328536,0 39.0301957,0 C29.7437422,0 30.238519,22.2736774 29.1866176,22.2736774 C29.1212702,22.2736774 29.0722434,20.2606242 28.9186614,19.1667343 C28.4573074,15.8807339 21.4275619,29.814835 29.1866176,29.814835 C34.0221932,29.814835 35.0240902,22.0299231 36.0038931,15.4415295 C36.63826,11.1759182 37.6957529,7.58107467 38.5054181,6.33512343 C40.1862023,3.74865303 43.040645,0.9130542 45.1698643,4.6864862 Z" id="3"></path>
                    <path d="M29.1333049,20.7091877 C28.8859003,19.1727312 28.3504417,9.22447932 21.416465,9.22447932 C16.9420363,9.22447932 14.8848546,13.0175995 13.1521631,18.1282651 C9.56827568,28.6991311 6.55766391,44.4824047 2.14936257,42.8427796 C2.14936257,42.8427796 1.43290838,44.670725 0,48.3266158 C1.06652649,48.7239953 2.01511445,48.922685 2.84576386,48.922685 C9.81448479,48.922685 13.1619472,38.4814581 15.8877949,29.150176 C18.0381766,21.7888627 19.9455651,14.3061013 21.1843312,14.3061013 C24.5691162,14.3061013 21.416465,29.7292582 29.1929461,29.7292582 C32.4096257,29.7292582 33.9336804,26.3011173 34.882066,22.0698748 C33.301508,25.4984154 30.0763931,26.5660486 29.1333049,20.7091877 Z" id="2"></path>
                    <path d="M27.6484579,14.1787999 C26.6025656,11.5818862 24.7467768,9.22447932 21.3775087,9.22447932 C16.9112189,9.22447932 14.8577793,13.0175995 13.1282395,18.1282651 C9.55087111,28.6991311 6.5457356,44.4824047 2.14545291,42.8427796 C2.14545291,42.8427796 1.43030194,44.670725 0,48.3266158 C1.06458649,48.7239953 2.01144898,48.922685 2.84058745,48.922685 C9.79663236,48.922685 13.1380058,38.4814581 15.8588952,29.150176 C17.6917167,22.8645201 19.3476926,17.044331 20.5623225,15.4776146 C21.569256,14.1787999 24.7467768,9.78177441 27.6484579,14.1787999 Z" id="1"></path>
                </g>
            </g>
        </g>
    </g>
</svg>